<?xml version="1.0" standalone="no"?>
<!DOCTYPE svg PUBLIC "-//W3C//DTD SVG 20010904//EN"
 "http://www.w3.org/TR/2001/REC-SVG-20010904/DTD/svg10.dtd">
<svg version="1.0" xmlns="http://www.w3.org/2000/svg"
 width="300.000000pt" height="400.000000pt" viewBox="0 0 300.000000 400.000000"
 preserveAspectRatio="xMidYMid meet">
<metadata>
Created by potrace 1.10, written by Peter Selinger 2001-2011
</metadata>
<g transform="translate(0.000000,400.000000) scale(0.100000,-0.100000)"
fill="#000000" stroke="none">
<path d="M150 3964 c0 -23 4 -33 11 -28 8 5 8 1 0 -14 -13 -24 -15 -45 -3 -39
4 3 7 -50 8 -116 0 -67 2 -193 5 -279 3 -87 2 -158 -3 -158 -4 0 -8 -5 -8 -11
0 -5 4 -7 10 -4 6 3 10 -3 10 -14 0 -12 -4 -21 -10 -21 -5 0 -9 -19 -9 -42 l2
-43 7 40 c6 39 6 39 11 10 2 -16 -1 -50 -7 -75 -9 -37 -8 -48 2 -58 18 -17 19
-112 2 -112 -9 0 -8 -4 2 -10 10 -6 11 -10 3 -10 -7 0 -13 -7 -13 -15 0 -8 3
-15 8 -15 4 0 7 -13 7 -30 0 -16 -2 -30 -5 -30 -3 0 -6 -24 -7 -53 -1 -38 1
-45 7 -27 4 14 5 -32 3 -102 -3 -83 -2 -128 5 -128 14 0 21 -80 9 -107 -7 -16
-6 -27 2 -37 9 -11 9 -20 2 -34 -6 -11 -8 -22 -4 -25 5 -6 9 -50 17 -184 1
-35 -1 -63 -6 -63 -5 0 -4 -8 1 -19 7 -12 7 -31 0 -55 -6 -21 -8 -45 -4 -54 4
-10 7 -159 7 -332 1 -190 4 -287 8 -245 5 49 7 17 6 -107 0 -97 2 -180 7 -184
9 -10 9 -27 0 -21 -12 8 -14 -73 -2 -94 7 -14 6 -19 -3 -19 -9 0 -10 -2 -2 -8
8 -5 12 -48 11 -127 l0 -120 -7 90 c-6 74 -7 65 -4 -44 2 -74 5 -162 5 -195 1
-53 3 -56 9 -26 5 23 8 -11 9 -95 1 -72 4 -148 7 -170 4 -30 3 -36 -5 -25 -9
12 -11 11 -11 -8 0 -14 4 -21 11 -17 7 5 9 -26 4 -106 -6 -94 -4 -118 8 -134
9 -11 18 -17 22 -13 6 6 -8 917 -20 1333 -12 407 -16 577 -20 845 -3 157 -7
341 -10 410 -3 69 -10 278 -16 465 -5 187 -12 374 -14 415 -2 41 -7 174 -11
295 -3 121 -8 223 -11 228 -2 4 -11 7 -19 7 -9 0 -14 -11 -14 -36z"/>
<path d="M255 3868 c9 -217 38 -1100 55 -1673 17 -589 29 -1127 35 -1630 5
-447 10 -573 21 -562 2 2 6 240 7 528 1 288 0 479 -3 424 -4 -55 -4 25 -2 178
3 163 1 277 -4 277 -5 0 -9 133 -8 317 0 175 -2 280 -6 233 -5 -65 -7 -34 -9
130 -1 118 -3 252 -5 298 -1 46 1 85 6 88 4 3 8 -5 9 -18 0 -13 3 -17 6 -10 3
7 -1 27 -8 44 -9 23 -14 27 -18 15 -8 -23 -5 303 4 341 4 21 3 32 -4 32 -13 0
-15 36 -3 44 4 2 9 22 9 43 l2 38 -14 -40 -14 -40 5 35 c2 19 6 85 8 145 3 87
2 96 -4 45 -7 -60 -7 -57 -8 45 0 61 -1 121 -2 135 -1 23 -2 23 -10 5 -7 -17
-9 -14 -9 13 -1 18 2 31 7 29 4 -3 1 136 -7 309 -12 254 -17 314 -28 314 -11
0 -13 -24 -8 -132z m92 -2141 c-2 -23 -3 -1 -3 48 0 50 1 68 3 42 2 -26 2 -67
0 -90z m10 -504 c-2 -27 -3 -5 -3 47 0 52 1 74 3 48 2 -27 2 -69 0 -95z"/>
<path d="M533 3935 c0 -38 2 -53 4 -32 2 20 2 52 0 70 -2 17 -4 1 -4 -38z"/>
<path d="M557 3928 c1 -40 7 -206 12 -368 5 -162 7 -317 4 -345 -11 -90 -5
-493 22 -1350 3 -88 8 -288 11 -445 4 -157 7 -316 9 -355 1 -38 6 -293 10
-565 l8 -496 23 -2 c21 -2 22 2 19 41 -1 23 -6 258 -10 522 -3 264 -8 496 -10
515 -2 19 -6 195 -9 390 -4 195 -8 429 -11 520 -3 91 -7 305 -10 475 -4 171
-10 470 -16 665 -5 195 -12 471 -16 613 -5 226 -8 257 -22 257 -13 0 -16 -12
-14 -72z"/>
<path d="M644 3878 c3 -68 8 -229 11 -358 3 -129 7 -302 10 -385 3 -82 7 -271
10 -420 10 -459 25 -1048 35 -1320 5 -143 12 -460 15 -705 4 -245 8 -472 10
-505 2 -33 4 -88 5 -122 0 -35 4 -63 8 -63 5 0 8 57 8 126 -1 69 2 128 6 130
5 3 7 22 7 42 l-2 37 -8 -40 c-5 -26 -7 -3 -4 70 2 69 0 95 -5 70 l-7 -40 -2
43 c0 24 4 42 10 42 5 0 8 4 5 8 -3 5 -8 103 -12 219 -5 154 -4 212 5 217 6 4
11 15 10 24 0 14 -2 13 -9 -3 -7 -15 -9 -8 -11 30 -1 28 -2 57 -1 65 6 56 4
169 -3 179 -4 7 -2 18 4 24 8 8 11 5 11 -11 0 -12 5 -22 11 -22 7 0 8 -22 4
-67 -4 -38 -4 -65 -1 -62 4 4 8 17 10 30 1 13 6 32 10 41 4 10 0 42 -10 75 -9
32 -17 89 -17 128 1 68 0 68 -7 20 l-7 -50 -1 65 c-1 48 1 61 9 50 8 -12 9
-11 5 5 -3 11 -6 68 -8 127 -1 60 -6 104 -11 101 -5 -3 -7 -25 -3 -49 3 -24 2
-44 -3 -44 -9 0 -6 353 4 405 4 24 3 26 -4 10 -6 -14 -8 2 -6 50 2 39 -1 90
-6 115 -6 28 -5 62 1 90 l9 45 -4 -51 c-3 -28 -1 -62 4 -75 9 -23 6 187 -3
236 -2 11 2 26 8 34 8 11 8 13 -1 7 -10 -5 -12 18 -12 101 2 151 0 185 -8 180
-9 -6 -6 323 3 346 3 9 4 26 1 39 -3 17 -5 14 -7 -12 -2 -35 -3 -34 -11 10 -4
25 -7 61 -7 80 l0 35 8 -30 c5 -21 8 -6 7 50 0 69 -1 73 -6 30 l-6 -50 -6 40
c-4 22 -1 66 4 98 8 42 8 60 0 65 -7 5 -13 98 -17 271 -3 146 -8 266 -10 269
-3 2 -2 10 1 18 3 9 -1 14 -12 14 -16 0 -17 -11 -11 -122z"/>
<path d="M864 3790 c0 -115 4 -210 7 -210 3 0 9 -159 13 -352 4 -194 9 -400
11 -458 4 -106 9 -274 21 -740 4 -140 8 -277 9 -305 1 -27 3 -115 5 -195 2
-137 3 -142 14 -90 11 55 12 550 1 810 -2 69 -10 332 -16 585 -8 316 -15 462
-23 467 -6 4 -7 8 -1 8 7 0 7 93 3 272 -10 341 -16 418 -33 418 -10 0 -12 -45
-11 -210z"/>
<path d="M954 3743 c3 -142 10 -402 16 -578 5 -176 14 -502 20 -725 6 -223 12
-443 15 -490 2 -47 4 -148 4 -224 l1 -140 33 30 c17 16 58 47 89 68 31 21 61
43 65 49 5 7 6 50 3 97 l-7 85 -1 -71 c-2 -68 -21 -132 -35 -117 -4 3 -7 0 -7
-8 0 -11 -2 -11 -10 1 -8 12 -10 10 -10 -9 0 -13 -3 -21 -7 -18 -3 4 -12 2
-20 -4 -9 -9 -13 -8 -13 0 0 18 -18 13 -24 -6 -3 -10 -3 5 0 34 3 28 2 58 -3
67 -5 9 -9 -9 -11 -51 -4 -89 -21 -118 -23 -38 0 33 -2 74 -3 90 -2 17 0 35 4
40 4 6 10 24 13 42 5 26 3 33 -13 38 -16 5 -18 10 -9 26 7 15 7 24 -1 34 -7 9
-8 15 0 20 5 3 10 11 10 16 0 6 -4 8 -8 5 -5 -3 -5 23 -1 56 4 34 5 67 2 74
-2 6 0 15 6 19 6 3 11 12 11 18 0 8 -3 8 -9 -1 -9 -14 -22 229 -15 288 2 19 4
56 5 82 3 91 19 36 19 -64 0 -116 10 -123 19 -15 2 16 21 6 21 -11 0 -10 16
-34 35 -54 25 -25 33 -41 28 -54 -5 -13 -3 -15 7 -9 10 6 11 2 6 -19 -8 -31 0
-66 15 -66 6 0 18 8 27 17 16 16 17 12 25 -58 4 -41 6 -158 5 -262 -2 -103 0
-187 3 -187 4 0 12 7 19 15 9 11 11 69 5 251 l-8 237 -33 29 c-18 16 -38 45
-44 64 -7 20 -28 50 -48 68 -29 28 -39 47 -57 121 -24 95 -23 125 7 132 10 3
18 10 18 17 0 17 -46 174 -69 236 -11 30 -20 67 -21 82 0 15 -5 39 -10 54 -24
61 18 212 79 289 15 19 15 19 -4 5 -11 -8 -30 -26 -42 -40 l-23 -25 -1 25 c0
14 -2 39 -4 55 -1 17 -4 73 -5 125 -1 52 -6 105 -11 117 -5 14 -4 31 4 45 13
26 11 170 -3 149 -4 -7 -6 7 -4 31 6 61 -6 158 -19 158 -7 0 -8 -79 -3 -257z
m92 -954 c11 -44 7 -88 -10 -104 -15 -15 -16 -11 -16 53 0 83 13 108 26 51z"/>
<path d="M1123 3945 c0 -33 2 -45 4 -27 2 18 2 45 0 60 -2 15 -4 0 -4 -33z"/>
<path d="M1144 3908 c3 -51 8 -173 12 -271 5 -158 8 -178 23 -175 9 2 16 12
15 23 -15 474 -18 515 -41 515 -13 0 -14 -14 -9 -92z"/>
<path d="M1225 3883 c10 -198 24 -396 28 -400 2 -2 12 -1 21 3 13 5 15 13 9
43 -9 39 -8 94 1 156 5 30 4 36 -5 25 -8 -11 -9 8 -5 73 3 49 1 87 -4 87 -5 0
-11 28 -13 63 -2 34 -3 4 -2 -68 1 -84 -1 -116 -6 -90 -4 22 -8 82 -8 133 -1
57 -5 92 -11 92 -8 0 -9 -38 -5 -117z"/>
<path d="M1273 3940 c0 -36 2 -50 4 -32 2 17 2 47 0 65 -2 17 -4 3 -4 -33z"/>
<path d="M1323 3945 c0 -33 2 -45 4 -27 2 18 2 45 0 60 -2 15 -4 0 -4 -33z"/>
<path d="M1367 3985 c-4 -8 -2 -17 4 -21 6 -4 6 -11 -2 -20 -6 -8 -8 -14 -3
-14 5 0 11 -73 13 -163 2 -89 4 -178 5 -197 1 -25 -6 -42 -24 -59 -21 -20 -22
-22 -5 -16 11 4 30 7 43 6 l22 -1 -5 148 c-3 81 -8 183 -10 227 -3 44 -5 90
-5 103 0 25 -25 30 -33 7z"/>
<path d="M1450 3933 c0 -159 15 -418 21 -363 l6 55 2 -55 c0 -30 4 -65 7 -77
5 -19 8 -20 20 -8 17 16 18 32 4 37 -7 2 -13 74 -16 188 -3 102 -7 197 -8 213
-1 15 -3 38 -4 52 -1 15 -8 25 -17 25 -12 0 -15 -14 -15 -67z m28 -208 c0 -26
-1 -25 -9 10 -4 22 -8 56 -7 75 0 33 1 32 9 -10 4 -25 7 -58 7 -75z"/>
<path d="M1586 3813 c5 -233 12 -315 26 -328 8 -7 9 12 4 69 -3 43 -6 162 -6
263 0 152 -2 183 -14 183 -12 0 -14 -30 -10 -187z"/>
<path d="M1653 3878 c4 -66 7 -176 8 -242 1 -76 4 -112 9 -96 8 25 8 25 9 2 1
-13 -4 -33 -10 -44 -6 -12 -7 -18 -1 -14 5 3 12 -1 16 -9 3 -8 10 -15 16 -15
6 0 9 4 6 8 -3 5 -8 112 -11 238 -7 267 -10 294 -32 294 -14 0 -15 -14 -10
-122z"/>
<path d="M1723 3980 c0 -8 4 -20 8 -26 5 -6 11 -126 13 -267 4 -245 5 -257 26
-279 l21 -23 -6 265 c-7 335 -9 350 -39 348 -13 -1 -23 -9 -23 -18z"/>
<path d="M1816 3913 c4 -49 11 -97 17 -107 6 -13 7 -99 3 -242 -6 -165 -5
-224 4 -229 9 -5 11 17 9 87 -2 51 0 99 4 104 3 6 155 105 336 220 263 166
330 213 331 230 0 18 -6 22 -39 22 -33 1 -62 -14 -187 -97 -237 -154 -413
-259 -438 -261 -5 0 1 11 13 24 15 16 19 26 12 31 -7 3 -10 1 -9 -6 2 -6 -2
-13 -9 -16 -30 -11 -2 32 42 62 78 56 62 54 -20 -2 -25 -17 -32 -17 -32 3 0
14 23 38 77 77 32 23 4 10 -33 -15 -15 -11 -33 -18 -39 -16 -13 5 58 61 100
81 12 5 22 14 22 19 0 14 -16 9 -35 -12 -10 -11 -23 -20 -28 -20 -6 0 -19 -7
-29 -17 -10 -9 -20 -14 -23 -11 -3 3 27 27 67 54 99 67 102 69 94 55 -12 -19
5 -12 48 21 57 44 65 52 41 44 -11 -4 -31 -10 -45 -12 -14 -3 -61 -29 -105
-58 -44 -29 -93 -61 -109 -72 l-29 -18 6 45 c7 53 -1 119 -15 119 -5 0 -6 -36
-2 -87z m684 62 c-14 -17 -148 -99 -230 -141 -80 -40 -192 -113 -211 -137 -9
-11 -21 -17 -28 -13 -6 4 -11 1 -11 -7 0 -8 -7 -18 -16 -21 -15 -6 -15 -4 -3
11 12 16 11 15 -16 -1 -16 -11 -36 -28 -43 -38 -14 -19 -62 -25 -62 -8 0 13
129 96 235 150 116 60 211 112 310 172 88 53 93 55 75 33z"/>
<path d="M2139 3978 c-14 -13 -41 -36 -60 -53 -19 -16 -30 -27 -25 -22 21 16
28 6 10 -15 -14 -16 -10 -15 19 6 20 16 37 31 37 34 0 3 -5 1 -12 -6 -7 -7
-17 -12 -22 -12 -6 0 12 20 39 45 28 24 47 44 44 45 -3 0 -17 -10 -30 -22z"/>
<path d="M2223 3978 c-128 -95 -253 -191 -253 -195 0 -4 103 67 159 109 13 10
28 15 34 11 5 -3 7 -1 3 5 -3 5 11 24 33 41 41 33 57 39 45 19 -4 -7 -3 -9 1
-5 8 7 17 37 11 37 -2 0 -17 -10 -33 -22z"/>
<path d="M2530 3883 c0 -84 3 -114 11 -103 7 11 8 -4 5 -50 -9 -103 -9 -120
-6 -410 2 -314 16 -327 20 -20 2 113 4 224 5 248 2 45 15 72 15 31 0 -14 4
-29 9 -35 5 -5 12 -20 16 -34 4 -17 3 -21 -3 -11 -6 8 -12 9 -16 3 -3 -6 -2
-13 4 -17 15 -9 12 -55 -4 -55 -10 0 -14 -17 -14 -69 0 -55 3 -69 14 -64 11 4
10 -1 -2 -26 -9 -17 -14 -39 -11 -49 3 -14 6 -13 15 8 9 22 11 23 12 5 1 -11
2 -37 2 -58 0 -25 5 -40 15 -44 13 -5 14 -20 8 -102 -3 -52 -8 -98 -11 -102
-2 -3 -15 -4 -28 -2 -21 4 -25 10 -22 35 2 20 0 26 -7 19 -6 -6 -7 -170 -1
-492 8 -412 11 -483 24 -489 8 -4 32 -15 53 -24 l38 -16 -6 182 c-3 101 -8
221 -10 268 -3 47 -2 90 3 96 8 14 109 23 245 24 79 0 97 3 97 15 0 10 -10 15
-30 15 -17 0 -54 12 -83 26 l-52 26 30 -26 30 -25 -37 -1 c-20 0 -43 6 -50 13
-11 12 -16 12 -26 0 -8 -7 -34 -13 -65 -13 -55 0 -87 -21 -101 -67 -7 -21 -36
-40 -36 -24 0 5 6 11 13 14 9 3 9 7 -1 19 -7 9 -10 22 -8 29 3 8 7 32 9 54 3
22 6 46 8 54 2 7 -2 16 -8 18 -9 3 -13 -7 -14 -29 -1 -26 -3 -28 -6 -9 -3 14
4 41 17 63 14 25 17 38 9 36 -9 -2 -14 11 -15 42 -1 25 -5 53 -9 63 -4 9 -3
17 2 17 5 0 8 14 5 30 -3 18 0 30 7 30 16 0 28 -36 30 -87 1 -13 6 -23 11 -23
6 0 10 38 10 94 0 71 4 98 15 110 12 11 15 41 15 133 0 65 -4 125 -10 133 -6
9 -8 -4 -7 -40 0 -30 0 -82 -2 -115 -3 -49 -6 -38 -14 65 -5 69 -10 137 -11
153 -1 28 -20 37 -29 15 -4 -10 -6 -10 -6 0 -1 8 8 16 20 19 20 6 20 10 15
122 -9 206 -11 381 -5 381 3 0 7 31 8 69 l2 70 -31 -1 c-16 -1 -30 -5 -30 -10
0 -4 3 -7 8 -7 25 4 27 -10 24 -176 -2 -140 -6 -175 -17 -175 -19 0 -24 21
-10 46 6 12 12 61 14 108 2 75 0 85 -13 80 -13 -5 -16 2 -16 34 0 52 -10 102
-21 102 -5 0 -9 -53 -9 -117z m90 -476 c0 -40 -25 -47 -28 -8 -1 20 0 23 8 11
8 -12 10 -11 10 8 0 12 2 22 5 22 3 0 5 -15 5 -33z m-4 -1002 c3 -19 2 -41 -4
-48 -5 -6 -8 -20 -7 -29 2 -10 -1 -18 -6 -18 -5 0 -10 9 -10 20 -1 11 -2 26
-3 33 -1 6 2 17 6 24 5 6 5 14 -1 17 -11 7 -4 36 10 36 4 0 11 -16 15 -35z m0
-138 c1 -15 -3 -27 -7 -27 -5 0 -9 6 -9 14 0 8 -3 22 -7 32 -4 12 -2 15 8 12
8 -3 14 -17 15 -31z m3 -137 c1 -70 -17 -124 -20 -60 -2 44 -2 130 1 150 4 38
19 -30 19 -90z"/>
<path d="M763 3850 c0 -41 2 -58 4 -37 2 20 2 54 0 75 -2 20 -4 3 -4 -38z"/>
<path d="M2654 3605 c0 -176 2 -247 3 -157 2 90 2 234 0 320 -1 86 -3 13 -3
-163z"/>
<path d="M1564 3805 c0 -49 1 -71 3 -48 2 23 2 64 0 90 -2 26 -3 8 -3 -42z"/>
<path d="M693 3800 c0 -41 2 -58 4 -37 2 20 2 54 0 75 -2 20 -4 3 -4 -38z"/>
<path d="M1130 3596 c0 -63 -3 -121 -6 -130 -3 -9 -2 -16 4 -16 6 0 10 51 11
130 1 72 -1 130 -4 130 -3 0 -5 -51 -5 -114z"/>
<path d="M1562 3608 c4 -76 2 -98 -8 -102 -24 -9 -15 -26 11 -24 17 2 24 7 20
16 -3 7 -8 55 -11 105 -9 123 -18 127 -12 5z"/>
<path d="M2478 3672 c-30 -18 -39 -39 -10 -23 29 16 58 40 47 40 -5 0 -22 -7
-37 -17z"/>
<path d="M542 3538 c2 -134 5 -118 10 45 2 48 0 87 -4 87 -5 0 -7 -60 -6 -132z"/>
<path d="M703 3610 c0 -36 2 -50 4 -32 2 17 2 47 0 65 -2 17 -4 3 -4 -33z"/>
<path d="M2392 3619 c-18 -12 -31 -24 -28 -26 6 -7 66 29 66 39 0 11 0 11 -38
-13z"/>
<path d="M2461 3505 c-1 -237 35 -1063 59 -1325 7 -81 8 -72 4 60 -3 85 -7
196 -10 245 -3 50 -7 137 -9 195 -1 58 -6 224 -11 370 -4 146 -8 325 -8 397
-1 73 -5 133 -9 133 -5 0 -6 3 -4 8 3 4 1 16 -4 27 -4 12 -8 -34 -8 -110z"/>
<path d="M2415 3581 c-7 -31 -9 -33 -22 -16 -18 25 -17 -129 2 -760 8 -264 15
-489 15 -499 0 -11 3 -16 7 -12 4 4 8 40 9 79 1 40 3 85 3 101 1 38 16 24 17
-17 3 -97 5 -108 14 -102 6 4 7 -2 2 -17 -12 -33 -6 -129 9 -139 10 -6 8 -13
-5 -34 -10 -15 -12 -24 -5 -20 7 5 10 4 6 -2 -7 -11 12 -93 22 -93 3 0 -1 127
-11 283 -15 256 -24 464 -47 1077 -5 142 -10 195 -16 171z m26 -978 c2 -38 -1
-56 -11 -66 -4 -5 -8 14 -8 42 -2 52 17 74 19 24z"/>
<path d="M2295 3560 c-28 -16 -43 -30 -35 -30 9 0 26 7 38 16 13 9 25 14 28
11 6 -6 8 -486 2 -492 -3 -3 -10 6 -16 20 -6 14 -8 25 -3 25 4 0 8 7 8 15 0 8
-3 15 -6 15 -3 0 -7 21 -8 48 -3 79 -11 286 -12 305 -1 11 -6 15 -12 11 -7 -4
-9 -38 -5 -103 3 -53 8 -181 11 -286 3 -104 10 -327 15 -495 5 -168 10 -350
10 -405 0 -68 3 -95 10 -85 5 8 7 22 5 31 -3 9 -1 28 4 41 6 16 6 29 0 35 -5
5 -3 18 7 31 19 28 39 19 23 -10 -8 -15 -8 -22 0 -28 8 -4 5 -15 -9 -33 -16
-20 -17 -25 -6 -21 11 4 16 0 16 -14 0 -11 -4 -22 -8 -24 -5 -1 0 -16 10 -33
20 -30 20 -30 14 235 -17 810 -30 1216 -39 1221 -5 4 -3 9 4 11 8 3 12 8 9 11
-3 3 -28 -7 -55 -23z m38 -633 c-18 -30 -33 67 -16 110 5 12 10 -2 14 -42 4
-33 5 -63 2 -68z m5 -79 c2 -53 2 -53 -12 -22 -13 30 -11 88 3 79 4 -2 8 -28
9 -57z m10 -210 c2 -79 4 -181 6 -228 2 -79 -7 -130 -25 -130 -10 0 2 44 15
52 8 6 8 8 0 8 -7 0 -12 10 -12 23 0 12 -2 50 -4 84 -4 41 -1 64 6 67 6 2 4 5
-4 5 -12 1 -15 15 -15 61 -1 33 2 60 5 60 3 0 7 11 8 26 1 14 -1 23 -6 20 -4
-2 -5 18 -4 45 3 29 9 49 16 49 8 0 12 -42 14 -142z"/>
<path d="M153 3460 c-1 -69 2 -114 6 -100 4 14 4 70 1 125 l-7 100 0 -125z"/>
<path d="M2047 3407 c-97 -60 -175 -112 -173 -114 2 -3 69 36 149 85 80 50
158 97 174 105 l28 15 3 -247 c1 -135 4 -280 7 -321 3 -41 8 -174 10 -295 3
-121 10 -256 14 -300 6 -47 6 -82 0 -85 -5 -4 -3 -34 5 -70 l14 -65 1 60 c0
33 -8 341 -19 685 -11 344 -20 633 -20 643 0 9 -3 17 -7 16 -5 -1 -88 -51
-186 -112z"/>
<path d="M1302 3473 c-30 -2 -50 -8 -47 -14 4 -5 1 -9 -6 -9 -7 0 -10 -2 -8
-4 5 -5 119 20 127 28 3 3 1 5 -4 4 -5 -1 -33 -3 -62 -5z"/>
<path d="M1590 3460 c0 -6 -5 -8 -11 -5 -6 4 -5 -2 3 -14 7 -12 15 -21 18 -22
3 0 14 -3 25 -5 11 -2 28 -5 37 -6 10 -1 20 -8 22 -15 3 -7 13 -13 22 -13 17
0 94 -75 94 -92 0 -5 5 -6 12 -2 7 5 8 3 3 -5 -10 -16 14 -61 32 -61 9 0 14
-9 13 -22 -4 -40 0 -48 16 -41 11 4 12 9 5 16 -15 15 -14 24 2 30 17 6 22 -50
6 -69 -9 -11 -9 -14 1 -14 8 0 10 -13 6 -45 -8 -56 -20 -89 -47 -127 -24 -34
-22 -70 10 -152 17 -46 19 -48 26 -25 4 13 14 31 22 40 11 13 12 30 6 81 -5
35 -5 78 -1 94 21 76 25 137 12 181 -13 42 -64 103 -86 103 -6 0 -8 11 -6 24
3 17 1 23 -8 19 -7 -2 -15 4 -18 14 -7 19 -60 83 -69 83 -4 0 -23 11 -43 25
-20 14 -41 22 -47 18 -5 -3 6 -14 26 -24 20 -11 39 -23 42 -29 10 -16 -5 -12
-32 10 -14 11 -39 20 -54 20 -16 0 -29 4 -29 10 0 5 7 7 16 3 12 -4 15 -2 12
8 -6 17 -38 25 -38 9z"/>
<path d="M1207 3435 c3 -8 10 -15 17 -16 6 0 -9 -10 -34 -21 -25 -11 -40 -22
-33 -25 6 -2 25 3 42 11 16 9 39 16 50 16 11 0 23 5 27 12 5 8 2 9 -9 5 -10
-3 -17 -3 -17 2 0 4 -11 13 -25 19 -20 9 -23 9 -18 -3z"/>
<path d="M1136 3414 c-29 -20 -35 -28 -25 -35 21 -13 29 -11 23 5 -4 10 4 17
25 23 17 4 31 12 32 18 1 18 -16 15 -55 -11z"/>
<path d="M1422 3410 c17 -16 35 -30 41 -30 5 0 3 -8 -4 -17 -9 -10 -9 -14 -2
-10 7 5 21 -1 33 -13 24 -24 25 -22 4 19 -14 28 -77 81 -96 81 -4 0 6 -13 24
-30z"/>
<path d="M1382 3395 c19 -21 41 -36 48 -33 18 6 -28 54 -59 63 -23 7 -22 4 11
-30z"/>
<path d="M1499 3404 c28 -39 80 -78 89 -69 4 4 -2 12 -12 19 -11 6 -29 20 -41
31 -48 45 -60 51 -36 19z"/>
<path d="M1312 3391 c-10 -6 -7 -12 13 -25 15 -10 23 -22 19 -29 -4 -7 -4 -9
1 -5 4 4 13 4 19 -1 6 -4 20 -11 30 -15 13 -4 6 8 -20 38 -43 49 -44 49 -62
37z"/>
<path d="M553 3315 c0 -33 2 -45 4 -27 2 18 2 45 0 60 -2 15 -4 0 -4 -33z"/>
<path d="M1237 3363 c-29 -4 -29 -5 17 -29 44 -23 113 -36 74 -13 -10 5 -15
16 -12 24 4 8 1 15 -4 15 -6 0 -9 -8 -7 -19 3 -14 -1 -18 -17 -13 -13 3 -16 7
-8 12 12 8 5 31 -8 29 -4 -1 -20 -4 -35 -6z"/>
<path d="M1171 3337 c13 -12 30 -23 39 -23 8 -1 29 -5 45 -8 29 -7 29 -6 -5
10 -19 9 -41 17 -47 17 -7 0 -13 4 -13 8 0 3 -10 9 -21 12 -21 6 -21 5 2 -16z"/>
<path d="M1365 3298 c11 -7 26 -18 34 -25 21 -21 27 -6 6 17 -10 11 -28 20
-39 20 -21 -1 -21 -1 -1 -12z"/>
<path d="M1130 3290 c-13 -9 -13 -10 0 -11 8 -1 26 -3 40 -5 14 -2 55 -4 92
-4 62 0 91 -11 69 -24 -5 -4 -12 -2 -16 4 -8 12 -25 13 -25 1 0 -15 39 -20 50
-6 19 23 -18 40 -89 40 -36 0 -75 3 -86 7 -11 4 -27 3 -35 -2z"/>
<path d="M1042 3269 c-8 -12 -9 -18 -4 -15 6 3 13 0 15 -6 3 -8 6 -6 6 4 1 12
6 15 19 11 15 -6 15 -5 3 10 -18 22 -23 21 -39 -4z"/>
<path d="M1774 3254 c9 -8 14 -25 12 -37 -1 -12 -1 -17 1 -10 2 7 11 9 19 6 8
-3 14 0 14 7 0 6 -4 9 -9 6 -4 -3 -13 6 -19 19 -7 14 -16 25 -22 25 -7 0 -4
-7 4 -16z"/>
<path d="M1124 3249 c-4 -6 0 -15 7 -20 20 -12 31 -11 23 3 -5 8 4 9 32 5 45
-7 25 7 -23 16 -19 4 -35 2 -39 -4z"/>
<path d="M1241 3243 c-1 -17 28 -31 63 -31 19 0 24 3 15 9 -8 5 -26 9 -41 9
-14 0 -29 6 -31 13 -4 9 -6 9 -6 0z"/>
<path d="M1540 3204 c-36 -19 -76 -34 -90 -33 -23 0 -23 1 8 14 17 8 32 16 32
19 0 3 -15 3 -32 -1 -61 -12 -54 -43 8 -43 36 0 94 18 94 30 0 5 18 11 40 15
42 7 52 19 22 27 -10 3 -47 -10 -82 -28z"/>
<path d="M1657 3221 c3 -12 12 -21 19 -21 8 0 18 -8 21 -17 4 -10 17 -31 30
-46 l23 -29 0 42 c0 37 -2 41 -16 30 -13 -11 -16 -10 -21 8 -3 12 -10 22 -16
22 -6 0 -18 7 -28 16 -16 15 -17 14 -12 -5z"/>
<path d="M1022 3210 c-7 -12 -10 -25 -7 -30 4 -6 1 -10 -4 -10 -6 0 -11 -5
-11 -11 0 -8 4 -8 15 1 8 6 13 15 12 20 -1 4 9 17 23 28 23 20 24 21 5 22 -11
0 -26 -9 -33 -20z"/>
<path d="M1344 3213 c9 -16 6 -16 -111 -17 -50 -1 -89 2 -86 7 2 4 1 7 -4 7
-12 -1 -60 -29 -49 -30 5 0 4 -6 -2 -13 -8 -10 -6 -13 8 -14 23 -2 38 16 22
26 -6 3 11 6 38 6 27 0 52 -4 56 -8 5 -4 0 -5 -10 -1 -14 5 -17 4 -12 -4 9
-15 46 -16 46 -2 0 6 20 10 45 10 25 0 45 -5 45 -10 0 -7 6 -7 19 0 11 5 27 7
35 4 9 -3 16 -1 16 5 0 6 -5 11 -12 11 -6 0 -20 8 -31 18 -11 9 -17 11 -13 5z"/>
<path d="M1283 3163 c-13 -2 -23 -10 -23 -17 0 -22 -51 -66 -77 -66 -13 0 -22
-4 -19 -9 7 -10 39 -5 73 11 13 7 19 16 16 26 -5 11 -3 13 7 7 9 -5 11 -4 6 3
-4 7 0 12 10 12 10 0 14 3 11 7 -4 3 1 12 11 19 9 7 15 13 12 12 -3 0 -15 -3
-27 -5z"/>
<path d="M1033 3121 c-23 -19 -32 -38 -13 -26 6 3 13 -1 16 -9 3 -9 10 -13 16
-10 5 3 4 11 -3 20 -9 11 -9 17 1 29 17 20 10 18 -17 -4z"/>
<path d="M1121 3098 c-22 -24 -37 -34 -42 -27 -5 8 -8 8 -13 0 -4 -6 -3 -11 3
-11 16 0 1 -63 -18 -79 -14 -12 -14 -13 7 -8 17 4 21 2 14 -6 -10 -14 -8 -55
3 -65 5 -4 5 1 2 10 -3 10 -2 20 4 24 6 3 9 16 8 27 -3 47 2 76 15 89 46 41
92 74 115 80 19 4 14 6 -19 5 -39 -1 -50 -6 -79 -39z"/>
<path d="M160 3083 c0 -17 -3 -40 -6 -50 -5 -14 -4 -15 5 -7 15 14 21 58 10
76 -6 9 -9 2 -9 -19z"/>
<path d="M1750 3091 c0 -6 5 -13 11 -17 8 -4 7 -9 -2 -15 -11 -7 -11 -9 2 -9
15 0 48 -28 47 -40 0 -3 7 -21 15 -40 15 -34 15 -35 16 -7 1 15 -3 27 -9 27
-5 0 -9 3 -9 8 1 4 1 12 0 17 -1 14 -71 88 -71 76z"/>
<path d="M125 3050 c-4 -6 -10 -8 -15 -5 -4 3 -14 -3 -21 -12 -10 -12 -10 -14
-1 -9 7 4 12 2 12 -4 0 -7 -9 -14 -20 -17 -11 -3 -20 -9 -20 -15 0 -11 32 6
49 26 8 9 16 14 20 12 4 -3 8 4 8 15 2 21 -3 24 -12 9z"/>
<path d="M743 2970 c0 -41 2 -58 4 -37 2 20 2 54 0 75 -2 20 -4 3 -4 -38z"/>
<path d="M1578 2976 c-32 -7 -58 -10 -58 -7 -1 3 -6 -4 -13 -16 -12 -21 -15
-23 -39 -23 -8 0 -7 -6 4 -16 15 -15 19 -15 48 0 18 8 47 18 66 22 19 3 32 10
29 14 -3 4 12 4 33 -1 20 -5 52 -9 71 -9 29 0 32 2 21 15 -7 9 -19 14 -27 11
-7 -3 -13 -1 -13 5 0 6 -4 8 -9 4 -5 -3 -12 -1 -16 5 -8 12 -24 12 -97 -4z"/>
<path d="M2663 2895 c0 -44 2 -61 4 -37 2 23 2 59 0 80 -2 20 -4 1 -4 -43z"/>
<path d="M1238 2915 c-3 -4 -12 -8 -20 -9 -33 -6 -58 -18 -58 -29 0 -8 -3 -7
-9 2 -12 18 -31 5 -31 -22 0 -13 3 -17 8 -11 11 17 96 35 131 28 26 -6 30 -4
25 10 -3 9 -12 16 -19 16 -7 0 -15 5 -17 11 -2 5 -6 7 -10 4z"/>
<path d="M1436 2911 c-4 -5 -3 -17 1 -27 5 -13 3 -15 -7 -9 -34 21 23 -40 60
-65 36 -24 49 -27 107 -24 46 2 71 8 82 20 15 15 14 16 -14 9 -40 -11 -145
-12 -151 -3 -3 5 10 9 28 9 18 1 25 3 16 6 -20 5 -23 19 -7 29 7 4 16 -1 21
-10 13 -23 59 -21 65 4 5 20 15 25 26 13 4 -3 2 -12 -3 -18 -8 -10 0 -11 36
-4 25 5 50 7 54 4 5 -3 6 4 3 15 -3 11 -9 17 -14 14 -5 -3 -9 -1 -9 3 0 12
-89 43 -120 42 -14 0 -18 -3 -10 -5 64 -21 100 -37 100 -45 0 -5 -11 -4 -26 1
-40 15 -86 12 -129 -10 -21 -11 -40 -18 -42 -16 -2 2 12 17 32 35 20 17 32 31
28 31 -15 0 -83 -51 -83 -62 0 -7 -6 -6 -15 2 -12 10 -13 15 -4 20 8 6 8 13 0
29 -13 23 -17 25 -25 12z"/>
<path d="M1211 2850 c-18 -4 -43 -18 -55 -31 l-21 -22 29 21 c34 26 97 29 120
6 18 -18 21 -34 6 -34 -5 0 -10 6 -10 14 0 19 -26 27 -58 19 -29 -6 -91 -53
-72 -53 6 0 9 -4 6 -9 -4 -5 2 -8 11 -6 10 2 51 11 91 20 40 8 77 13 82 10 4
-3 6 4 3 14 -3 13 -10 18 -21 14 -9 -4 -13 -2 -9 4 16 26 -48 46 -102 33z m9
-72 c0 -5 -9 -8 -20 -8 -22 0 -28 26 -7 33 12 4 27 -10 27 -25z"/>
<path d="M823 2765 c0 -38 2 -53 4 -32 2 20 2 52 0 70 -2 17 -4 1 -4 -38z"/>
<path d="M1449 2815 c-3 -2 -3 -19 -1 -37 3 -26 13 -39 48 -61 46 -30 54 -49
29 -73 -22 -22 -19 -37 4 -25 41 22 31 68 -23 103 -30 20 -52 62 -47 91 1 8
-3 9 -10 2z"/>
<path d="M1932 2790 c-13 -16 -18 -30 -13 -30 5 0 11 5 13 12 6 18 29 -1 45
-39 13 -32 12 -38 -5 -71 -10 -21 -33 -45 -53 -54 -19 -10 -32 -18 -29 -19 3
0 14 -2 25 -4 13 -3 29 6 43 23 23 27 23 27 11 2 -11 -24 -11 -24 7 -7 26 24
32 142 10 185 -20 39 -27 40 -54 2z"/>
<path d="M2790 2808 c-123 -9 -149 -16 -136 -37 7 -10 171 -5 189 6 4 2 15 -1
23 -8 12 -10 15 -10 12 1 -2 8 6 15 17 17 16 3 17 2 5 -6 -11 -8 0 -11 43 -11
54 0 57 1 57 25 0 29 4 29 -210 13z"/>
<path d="M1265 2760 c-3 -5 -20 -14 -38 -19 -26 -7 -28 -9 -9 -10 22 -1 82 24
82 34 0 9 -29 5 -35 -5z"/>
<path d="M1900 2737 c0 -8 11 -24 25 -37 19 -18 22 -26 13 -37 -6 -7 -13 -11
-16 -8 -3 2 -11 -3 -18 -13 -12 -15 -13 -12 -14 26 0 26 -4 41 -10 37 -5 -3
-10 -24 -10 -45 0 -35 2 -38 25 -35 59 6 88 91 40 113 -33 15 -35 15 -35 -1z"/>
<path d="M2748 2723 c17 -2 47 -2 65 0 17 2 3 4 -33 4 -36 0 -50 -2 -32 -4z"/>
<path d="M2858 2703 c17 -2 47 -2 65 0 17 2 3 4 -33 4 -36 0 -50 -2 -32 -4z"/>
<path d="M1457 2653 c-14 -13 -6 -23 17 -23 13 0 26 7 30 15 4 11 -1 15 -18
15 -12 0 -26 -3 -29 -7z"/>
<path d="M1065 2618 c3 -13 9 -41 14 -63 9 -39 9 -38 10 23 1 49 -2 62 -14 62
-11 0 -14 -7 -10 -22z"/>
<path d="M1357 2634 c-14 -14 -7 -25 13 -22 12 2 21 8 21 13 0 12 -24 18 -34
9z"/>
<path d="M1470 2592 c0 -21 18 -42 37 -42 16 0 17 32 1 48 -18 18 -38 15 -38
-6z"/>
<path d="M1419 2588 c-1 -2 -2 -15 -3 -30 -3 -28 7 -34 38 -22 14 5 14 8 -1
30 -13 20 -30 31 -34 22z"/>
<path d="M1532 2569 c3 -8 16 -15 29 -15 36 -2 98 -31 121 -56 16 -19 19 -19
14 -5 -3 10 -6 24 -6 30 0 19 -38 38 -83 43 -23 3 -50 7 -61 10 -13 4 -17 2
-14 -7z"/>
<path d="M1930 2564 c-14 -8 -30 -12 -36 -10 -7 3 -15 -13 -19 -39 -3 -25 -10
-47 -15 -50 -14 -9 -7 -93 7 -88 7 3 12 8 11 11 -1 4 2 39 6 78 7 68 9 72 36
77 15 3 30 13 33 21 4 9 5 16 4 15 -1 -1 -13 -7 -27 -15z"/>
<path d="M1298 2504 c-17 -9 -28 -23 -28 -35 0 -27 24 -19 28 9 2 15 10 21 24
19 11 -1 23 4 25 11 6 16 -16 15 -49 -4z"/>
<path d="M1545 2513 c-32 -6 -107 -23 -148 -35 -67 -20 -32 -19 69 2 96 20
145 19 172 -3 18 -14 28 1 11 18 -14 14 -68 24 -104 18z"/>
<path d="M2994 2340 c0 -91 2 -128 3 -82 2 45 2 119 0 165 -1 45 -3 8 -3 -83z"/>
<path d="M1537 2429 c-15 -11 -32 -19 -39 -17 -7 1 -30 -1 -52 -6 -48 -9 -36
-25 23 -31 38 -4 46 0 83 35 42 42 31 56 -15 19z"/>
<path d="M2150 2278 c0 -110 1 -120 15 -102 10 15 13 41 11 85 -2 35 -4 81 -5
102 -1 20 -5 37 -11 37 -6 0 -10 -47 -10 -122z"/>
<path d="M2730 2348 c0 -32 -3 -39 -10 -28 -8 13 -10 12 -10 -2 0 -10 7 -18
15 -18 11 0 15 12 15 45 0 25 -2 45 -5 45 -3 0 -5 -19 -5 -42z"/>
<path d="M2790 2340 c0 -33 3 -40 20 -40 14 0 20 7 20 24 0 13 3 31 6 40 5 12
0 16 -20 16 -24 0 -26 -4 -26 -40z"/>
<path d="M1045 2360 c17 -7 17 -9 3 -9 -10 -1 -18 -5 -18 -10 0 -6 12 -6 31 1
23 8 27 13 17 19 -7 5 -22 8 -33 8 -20 0 -20 0 0 -9z"/>
<path d="M1871 2324 c-1 -37 5 -58 19 -77 11 -14 20 -30 20 -35 0 -16 50 -72
65 -72 7 0 16 -6 18 -12 4 -10 6 -10 6 0 2 20 1 22 -4 22 -8 0 -82 84 -94 107
-6 12 -11 34 -12 50 0 15 -4 37 -9 48 -6 15 -9 7 -9 -31z"/>
<path d="M1802 2335 c-19 -13 -41 -33 -49 -45 -14 -20 -14 -21 3 -12 11 6 26
13 34 15 12 4 59 68 48 67 -2 -1 -18 -12 -36 -25z"/>
<path d="M1684 2331 c3 -5 -1 -14 -9 -21 -8 -7 -13 -16 -10 -20 3 -4 -2 -13
-10 -20 -24 -20 -17 -30 13 -19 45 16 67 89 26 89 -8 0 -13 -4 -10 -9z"/>
<path d="M1056 2309 c-12 -37 -16 -89 -7 -89 11 0 27 88 17 97 -3 3 -8 0 -10
-8z"/>
<path d="M1570 2297 c-9 -7 -14 -20 -12 -29 4 -18 23 -24 36 -10 4 4 17 7 29
7 11 0 22 6 25 14 4 11 -2 12 -24 7 -16 -4 -30 -12 -32 -17 -2 -5 -8 -9 -13
-9 -6 0 -5 9 1 21 14 25 10 31 -10 16z"/>
<path d="M503 2230 c0 -36 2 -50 4 -32 2 17 2 47 0 65 -2 17 -4 3 -4 -33z"/>
<path d="M1300 2272 c0 -13 6 -22 16 -22 9 0 12 -5 8 -12 -4 -6 -3 -8 4 -4 6
3 14 0 19 -7 4 -8 32 -20 61 -27 50 -12 54 -11 74 10 11 12 18 24 15 27 -9 8
-27 -7 -27 -23 0 -8 -7 -14 -15 -14 -8 0 -15 7 -15 16 0 8 4 13 9 9 6 -3 15 4
21 15 8 16 8 20 -2 18 -7 -2 -16 -7 -19 -11 -9 -13 -43 -15 -56 -4 -9 7 -13 5
-13 -7 0 -24 -11 -20 -47 21 -29 33 -33 34 -33 15z"/>
<path d="M2410 2179 c0 -67 3 -98 10 -94 6 4 8 16 4 27 -4 15 -3 18 6 13 9 -6
9 -2 0 15 -7 12 -8 20 -3 17 5 -3 14 2 20 12 9 14 7 21 -8 34 -20 18 -25 37
-9 37 6 0 10 5 10 11 0 5 -5 7 -12 3 -8 -5 -9 -2 -5 9 3 10 2 17 -3 17 -6 0
-10 -42 -10 -101z"/>
<path d="M2728 2260 c26 -11 29 -27 5 -33 -10 -2 -3 -4 15 -4 23 0 32 5 31 16
0 11 -2 12 -6 3 -4 -10 -9 -8 -20 7 -8 12 -22 21 -31 20 -12 0 -11 -3 6 -9z"/>
<path d="M1587 2239 c-9 -5 -22 -7 -27 -4 -6 3 -10 1 -10 -5 0 -6 -6 -8 -12
-4 -7 4 -10 3 -5 -1 9 -10 57 -13 57 -4 0 4 7 6 16 5 9 0 19 5 21 12 6 14 -15
15 -40 1z"/>
<path d="M1314 2163 c3 -32 8 -115 12 -186 l6 -127 32 42 c22 28 31 49 27 63
-4 17 -6 18 -9 3 -5 -26 -22 -22 -21 5 1 12 -2 32 -4 45 -3 12 -2 22 4 22 5 0
9 -12 10 -27 l1 -28 7 25 c7 23 8 21 15 -17 7 -41 15 -51 29 -37 12 12 -88
274 -105 274 -5 0 -7 -25 -4 -57z"/>
<path d="M2721 2183 c-1 -27 33 -32 43 -7 10 25 7 27 -11 8 -16 -15 -17 -15
-24 2 -7 17 -8 17 -8 -3z"/>
<path d="M2014 2073 c-148 -165 -216 -225 -317 -282 -53 -29 -115 -55 -137
-58 -22 -3 -37 -9 -34 -14 8 -13 84 -11 84 2 0 5 5 7 10 4 6 -3 24 3 40 15 16
12 34 19 40 15 15 -9 48 12 55 36 5 15 9 18 15 9 6 -9 13 -7 29 9 11 11 23 21
26 21 3 0 10 0 15 0 6 0 10 6 10 13 0 6 16 26 36 42 20 17 54 53 74 80 21 28
61 74 90 103 44 46 55 53 78 48 15 -4 23 -3 17 1 -5 4 -10 15 -10 23 0 8 -10
16 -21 18 -16 2 -41 -19 -100 -85z"/>
<path d="M2724 2137 c3 -10 6 -22 6 -25 0 -12 63 -8 67 4 2 6 -8 11 -24 10
-15 -1 -34 6 -41 14 -12 13 -13 13 -8 -3z"/>
<path d="M1537 2123 c-12 -11 -7 -44 8 -59 13 -14 15 -13 15 10 0 14 -5 28
-11 32 -8 4 -7 9 2 15 8 5 9 9 3 9 -6 0 -14 -3 -17 -7z"/>
<path d="M2174 2115 c3 -8 -2 -19 -12 -24 -9 -5 -14 -12 -10 -16 3 -4 17 0 30
8 29 19 75 11 89 -15 6 -11 17 -17 25 -14 8 3 14 1 14 -5 0 -7 12 -8 33 -4 24
5 28 4 17 -4 -8 -6 -10 -11 -5 -12 26 -4 113 -4 109 0 -2 2 -41 17 -86 32 -46
15 -110 37 -142 48 -70 25 -70 25 -62 6z"/>
<path d="M1042 2055 c0 -27 3 -40 5 -27 4 20 7 21 21 10 15 -11 15 -11 5 3 -7
8 -17 26 -22 40 -8 20 -10 16 -9 -26z"/>
<path d="M2906 2074 c-3 -9 -6 -38 -6 -66 0 -46 2 -49 23 -46 27 4 34 36 18
90 -12 40 -25 48 -35 22z"/>
<path d="M2722 1998 c2 -25 8 -33 23 -33 15 0 20 8 22 33 2 28 0 32 -23 32
-23 0 -25 -4 -22 -32z"/>
<path d="M2453 2013 c-13 -2 -23 -9 -23 -15 0 -5 7 -7 16 -4 9 4 22 2 29 -4
23 -19 62 -21 69 -5 3 10 -1 15 -14 15 -10 0 -22 5 -25 10 -6 10 -13 11 -52 3z"/>
<path d="M2655 1939 c-3 -4 7 -10 22 -13 l26 -7 -24 -16 c-69 -46 -124 -118
-154 -200 -10 -29 -21 -50 -25 -48 -3 2 -7 -7 -8 -20 -1 -13 -8 -43 -16 -66
-20 -59 -14 -454 7 -476 4 -3 7 6 7 20 0 20 5 27 19 27 26 0 31 -18 31 -113 0
-45 5 -89 10 -97 7 -10 10 23 10 101 0 121 -6 138 -45 123 -23 -9 -19 33 9 80
13 23 27 51 30 63 6 19 4 22 -9 17 -15 -6 -14 -1 4 34 12 23 17 43 11 47 -11
7 -27 -22 -35 -65 -3 -18 -12 -44 -20 -59 -14 -25 -14 -25 -14 24 -1 56 26
127 80 220 32 54 56 115 45 115 -2 0 -23 -33 -47 -72 -70 -118 -72 -121 -65
-68 4 25 9 70 12 100 10 102 42 176 107 247 23 25 51 49 62 53 60 22 65 22 75
-5 5 -14 14 -24 19 -21 5 3 17 -7 27 -22 9 -15 26 -33 36 -40 10 -7 18 -20 18
-28 0 -9 5 -12 12 -8 7 4 8 3 4 -4 -4 -6 -3 -19 2 -29 24 -48 42 -93 58 -143
9 -30 25 -66 35 -79 18 -23 19 -23 19 -3 0 37 -29 147 -52 198 -16 36 -21 64
-19 107 3 69 -8 87 -58 87 l-36 0 34 -18 c34 -17 38 -24 47 -87 l5 -30 -18 25
c-15 22 -46 54 -120 122 -12 13 -28 18 -38 15 -10 -4 -14 -3 -10 4 4 6 -3 7
-21 3 -17 -4 -25 -3 -21 3 3 5 -1 10 -9 10 -8 0 -17 -4 -19 -8z"/>
<path d="M1434 1873 c2 -68 25 -105 75 -124 36 -14 37 -3 2 15 -41 22 -59 51
-70 116 l-10 55 3 -62z"/>
<path d="M1396 1904 c-27 -70 58 -234 122 -234 10 0 2 8 -17 18 -49 25 -92
104 -94 176 -1 31 -3 56 -3 56 -1 0 -5 -7 -8 -16z"/>
<path d="M1366 1835 c-11 -30 -7 -65 8 -65 11 0 13 9 9 38 -7 45 -9 48 -17 27z"/>
<path d="M758 1773 c-2 -5 -1 -62 2 -128 l6 -120 2 128 c2 114 -1 142 -10 120z"/>
<path d="M2671 1628 c-6 -18 -9 -67 -7 -108 2 -42 -1 -81 -6 -87 -7 -9 -7 -13
1 -13 16 0 19 14 25 105 2 44 7 92 10 108 9 38 -10 34 -23 -5z"/>
<path d="M1105 1630 c-10 -11 -23 -20 -29 -20 -19 -1 -53 -34 -71 -71 -10 -19
-25 -39 -34 -46 -24 -17 -23 -219 1 -288 30 -86 60 -218 63 -276 3 -55 49
-285 65 -325 4 -11 30 -55 57 -97 37 -58 56 -79 86 -90 22 -9 37 -22 37 -32 0
-14 -6 -16 -37 -10 -80 14 -88 15 -75 9 6 -3 12 -16 12 -28 0 -28 39 -66 68
-66 12 0 22 -5 22 -11 0 -7 -12 -8 -32 -4 -25 5 -29 4 -18 -4 8 -6 23 -11 32
-11 9 0 20 -5 24 -11 5 -9 -4 -10 -31 -5 l-38 7 32 -38 c38 -45 39 -63 6 -63
-26 0 -35 -15 -13 -22 7 -3 9 -12 4 -23 -5 -13 -9 -16 -14 -8 -12 20 -35 -2
-27 -26 7 -22 45 -30 45 -10 0 8 5 8 15 -1 24 -20 17 -30 -22 -31 -21 0 -32
-3 -25 -6 6 -2 10 -9 6 -14 -3 -5 2 -9 10 -9 9 0 16 5 16 10 0 6 7 10 16 10 8
0 12 -4 9 -10 -3 -5 1 -10 9 -10 14 0 16 33 16 279 l0 278 -29 69 c-16 38 -55
123 -87 189 -32 66 -58 126 -57 132 0 7 -3 11 -7 8 -8 -5 -46 48 -79 113 -36
71 -4 47 40 -30 22 -40 39 -66 36 -58 -2 8 -12 42 -21 74 -10 33 -28 73 -41
90 -36 48 -75 175 -74 243 1 63 10 105 22 104 22 -2 27 0 27 13 0 15 47 67 94
104 16 12 22 22 15 22 -11 0 -11 2 1 10 8 5 10 10 4 10 -6 0 -19 -9 -29 -20z
m-15 -710 c0 -11 5 -20 10 -20 6 0 31 -44 56 -97 74 -156 95 -210 100 -247 2
-12 6 -36 10 -53 5 -25 2 -34 -11 -39 -22 -9 -65 12 -65 31 0 8 -5 15 -11 15
-5 0 -8 4 -5 9 3 5 -1 14 -9 21 -8 7 -12 16 -10 21 3 4 -3 17 -15 29 -11 11
-20 29 -20 41 0 11 -4 28 -10 38 -5 10 -10 38 -11 62 -1 24 -8 52 -15 63 -7
10 -10 25 -7 32 3 8 1 14 -4 14 -9 0 -15 66 -8 88 7 19 25 14 25 -8z m180
-570 c0 -12 -24 -12 -60 0 -21 7 -19 8 18 9 23 1 42 -3 42 -9z"/>
<path d="M506 1552 c-6 -10 -7 -207 -1 -201 6 6 17 209 11 209 -3 0 -7 -4 -10
-8z"/>
<path d="M2050 1468 c-1 -2 -3 -30 -5 -63 -5 -55 -3 -57 12 -15 9 26 10 80 1
80 -4 0 -8 -1 -8 -2z"/>
<path d="M823 1395 c0 -33 2 -45 4 -27 2 18 2 45 0 60 -2 15 -4 0 -4 -33z"/>
<path d="M1399 1414 c0 -5 -2 -29 -4 -54 -2 -29 -1 -38 4 -25 8 20 8 20 13 0
3 -11 4 2 3 28 -2 26 -6 51 -9 54 -3 4 -6 2 -7 -3z"/>
<path d="M2380 1345 c0 -14 5 -25 10 -25 17 0 11 -18 -7 -23 -16 -4 -16 -5 1
-6 14 -1 16 -4 8 -14 -6 -7 -8 -27 -3 -47 11 -54 20 -21 18 63 -1 54 -6 77
-14 77 -7 0 -13 -11 -13 -25z"/>
<path d="M2763 1283 c4 -6 -8 -42 -27 -79 -18 -38 -44 -90 -57 -116 -12 -27
-28 -48 -35 -48 -16 0 -26 -51 -52 -267 -11 -89 2 -78 17 15 7 42 26 115 43
162 16 47 31 90 32 95 2 6 10 27 20 48 66 150 77 185 64 193 -6 4 -8 3 -5 -3z"/>
<path d="M946 850 c4 -228 7 -426 6 -440 0 -14 5 -31 11 -39 9 -11 9 -13 0 -8
-6 4 -14 3 -18 -2 -4 -7 -15 -7 -32 0 -14 5 -28 7 -31 4 -10 -10 12 -23 43
-27 34 -3 50 -38 18 -38 -11 0 -14 -3 -7 -8 15 -10 25 -40 15 -47 -5 -2 -14 2
-21 10 -7 8 -10 15 -6 15 3 0 -2 9 -11 20 -10 11 -23 20 -29 20 -6 0 -17 6
-23 14 -9 11 -9 15 1 19 8 3 8 6 2 6 -6 1 -18 -7 -25 -16 -7 -10 -9 -15 -5
-11 5 5 20 -8 33 -27 25 -36 77 -70 93 -60 6 4 7 -2 2 -14 -4 -11 -6 -65 -4
-120 3 -79 6 -101 17 -101 12 0 14 26 13 140 0 76 -5 137 -10 134 -4 -3 -8 2
-8 10 0 9 4 16 9 16 5 0 8 15 5 33 -4 36 -15 614 -14 752 0 56 -5 107 -15 135
-14 41 -15 10 -9 -370z"/>
<path d="M1102 1170 c-14 -23 -16 -44 -3 -35 5 3 12 -4 16 -15 3 -11 11 -20
16 -20 11 0 1 43 -11 48 -4 2 -6 12 -3 22 7 25 1 25 -15 0z"/>
<path d="M1346 1173 c-15 -55 -23 -374 -11 -430 3 -13 2 -23 -3 -23 -9 0 3
-138 13 -148 3 -3 6 26 6 64 3 163 6 221 13 247 6 18 4 27 -3 27 -6 0 -11 7
-11 15 0 9 6 12 18 9 15 -5 15 -4 2 8 -17 15 -26 43 -11 33 7 -4 10 20 8 65
-1 38 1 71 5 73 4 1 5 12 2 24 -4 13 -11 20 -18 16 -6 -3 -6 0 2 8 14 15 16
29 3 29 -5 0 -12 -8 -15 -17z"/>
<path d="M1838 1147 c-3 -13 -1 -32 3 -43 9 -22 9 -22 15 29 5 40 -11 52 -18
14z"/>
<path d="M1526 1044 c2 -20 8 -42 11 -48 4 -6 8 -21 9 -34 2 -38 14 -38 14 1
0 20 -4 39 -10 42 -5 3 -10 19 -10 35 0 16 -4 31 -9 35 -6 3 -8 -10 -5 -31z"/>
<path d="M1841 1028 c5 -28 5 -56 2 -61 -3 -6 -1 -7 4 -4 16 10 15 104 -1 110
-10 4 -11 -5 -5 -45z"/>
<path d="M1283 1031 c1 -24 4 -35 9 -28 11 17 10 55 -1 62 -6 3 -9 -11 -8 -34z"/>
<path d="M393 900 c0 -41 2 -58 4 -37 2 20 2 54 0 75 -2 20 -4 3 -4 -38z"/>
<path d="M1236 942 c-4 -6 0 -25 9 -41 8 -17 15 -41 15 -55 0 -20 4 -24 17
-19 11 4 12 8 5 11 -7 2 -12 13 -13 25 -1 36 -25 92 -33 79z"/>
<path d="M1869 949 c-15 -77 -18 -109 -10 -109 9 0 24 101 16 109 -3 2 -5 2
-6 0z"/>
<path d="M773 721 c-1 -124 2 -218 6 -210 4 7 4 109 1 224 l-7 210 0 -224z"/>
<path d="M140 860 c0 -29 3 -51 6 -47 8 7 7 87 0 95 -3 3 -6 -19 -6 -48z"/>
<path d="M557 866 c-4 -27 -6 -67 -6 -90 1 -31 4 -25 11 29 10 81 6 135 -5 61z"/>
<path d="M432 810 c0 -19 3 -44 8 -55 7 -17 9 -15 8 10 0 17 -4 41 -8 55 -7
23 -8 22 -8 -10z"/>
<path d="M1587 780 c6 -50 13 -65 13 -31 0 15 4 20 13 15 6 -4 5 1 -4 12 -9
10 -19 26 -22 34 -3 8 -3 -5 0 -30z"/>
<path d="M1038 570 c3 -135 7 -246 11 -247 3 -2 5 -40 4 -85 -1 -80 -1 -81 7
-28 5 30 7 132 5 225 -3 104 -1 162 5 150 5 -11 9 -100 9 -198 1 -98 5 -176 9
-173 5 3 7 44 5 91 -1 47 -1 85 2 85 3 0 15 -21 27 -46 16 -34 19 -51 11 -63
-11 -17 -6 -79 7 -96 12 -16 2 -135 -12 -153 -10 -12 -10 -14 0 -8 7 4 12 1
12 -8 0 -9 6 -16 13 -16 8 0 12 16 11 53 -1 28 3 64 8 80 8 22 7 31 -6 46 -18
20 -21 57 -7 94 9 24 -2 74 -35 153 -10 24 -11 38 -2 61 10 26 8 34 -10 60
-11 16 -24 41 -27 56 -4 15 -10 25 -14 23 -3 -2 -7 15 -9 38 -1 22 -8 66 -15
96 -11 48 -12 24 -9 -190z"/>
<path d="M383 680 c0 -41 2 -58 4 -37 2 20 2 54 0 75 -2 20 -4 3 -4 -38z"/>
<path d="M2628 693 c-2 -15 0 -41 5 -56 9 -27 -7 -115 -23 -127 -4 -3 -12 -30
-18 -60 -6 -30 -14 -67 -18 -82 -3 -16 -2 -28 3 -28 5 0 24 58 42 129 27 105
32 140 27 187 -7 66 -13 78 -18 37z"/>
<path d="M564 425 c0 -99 2 -138 3 -87 2 51 2 132 0 180 -1 48 -3 6 -3 -93z"/>
<path d="M233 470 c0 -36 2 -50 4 -32 2 17 2 47 0 65 -2 17 -4 3 -4 -33z"/>
<path d="M1392 472 c1 -18 10 -40 19 -48 16 -14 16 -13 2 28 -19 55 -24 60
-21 20z"/>
<path d="M1150 460 c1 -24 27 -53 35 -40 4 7 -2 22 -14 33 -15 16 -21 18 -21
7z"/>
<path d="M144 225 c0 -104 2 -146 3 -92 2 54 2 139 0 190 -1 51 -3 7 -3 -98z"/>
<path d="M1400 390 c0 -5 8 -6 17 -3 12 5 15 2 10 -9 -3 -10 0 -19 9 -22 15
-6 18 3 8 28 -7 17 -44 22 -44 6z"/>
<path d="M384 215 c0 -60 1 -84 3 -52 2 32 2 81 0 110 -2 29 -3 3 -3 -58z"/>
<path d="M2586 265 c3 -16 17 -42 31 -57 14 -14 22 -31 19 -37 -5 -7 2 -11 18
-11 41 0 39 17 -9 51 -24 17 -49 44 -55 58 -10 25 -10 25 -4 -4z"/>
<path d="M1163 230 c4 -16 52 -44 67 -38 5 2 2 12 -5 22 -12 15 -17 17 -29 7
-11 -10 -17 -9 -26 6 -7 11 -10 13 -7 3z"/>
<path d="M2756 220 c-64 -8 -55 -27 16 -35 35 -3 74 -4 88 -1 14 2 52 5 85 6
49 1 56 3 36 11 -13 5 -32 7 -42 4 -11 -4 -21 1 -28 12 -10 17 -10 17 -11 -2
-1 -17 -2 -18 -13 -5 -12 15 -60 19 -131 10z"/>
<path d="M786 174 c-8 -64 -8 -174 2 -174 4 0 8 50 8 110 1 61 0 110 -1 110
-1 0 -5 -21 -9 -46z"/>
<path d="M1057 143 c-12 -11 -8 -121 4 -129 9 -5 10 7 6 42 -4 32 -4 42 2 29
7 -16 9 -12 7 17 -2 39 -8 52 -19 41z"/>
<path d="M2883 143 c-17 -2 -34 -11 -37 -20 -5 -13 -1 -14 26 -9 18 3 39 7 46
8 6 1 12 7 12 15 0 7 -3 12 -7 11 -5 0 -22 -3 -40 -5z"/>
<path d="M2770 130 c0 -5 -6 -7 -12 -5 -7 3 -33 1 -58 -4 -25 -5 -39 -9 -32
-10 7 -1 10 -6 6 -13 -10 -16 112 -4 133 14 9 7 19 12 22 10 3 -2 7 1 9 7 2 7
-11 11 -32 11 -20 0 -36 -4 -36 -10z"/>
<path d="M1618 78 c-3 -24 -8 -52 -12 -63 -8 -20 -7 -20 8 -1 9 11 16 38 16
63 0 55 -7 55 -12 1z"/>
<path d="M2883 81 c-56 -3 -104 -9 -108 -12 -11 -12 149 -21 176 -10 15 5 29
8 32 5 2 -3 7 2 10 11 4 8 3 14 -1 13 -4 -1 -53 -4 -109 -7z"/>
<path d="M2710 37 c31 -18 135 -34 126 -19 -3 5 -31 13 -62 17 -32 4 -64 9
-73 12 -9 2 -5 -2 9 -10z"/>
</g>
</svg>
